<?xml version="1.0" encoding="UTF-8"?>
<svg width="286px" height="72px" viewBox="0 0 286 72" version="1.1" xmlns="http://www.w3.org/2000/svg" xmlns:xlink="http://www.w3.org/1999/xlink">
    <title>verify</title>
    <g id="Page-1" stroke="none" stroke-width="1" fill="none" fill-rule="evenodd">
        <g id="Artboard-Copy" transform="translate(3.000000, -344.000000)">
            <g id="verify" transform="translate(-2.562446, 344.144661)">
                <g transform="translate(108.202446, 4.679339)" fill="#0F172A" fill-rule="nonzero">
                    <polygon id="Path" points="18.56 41.92 27.52 14.72 37.056 14.72 23.936 50.176 13.056 50.176 0 14.72 9.6 14.72"></polygon>
                    <path d="M73.9685517,31.68 C73.9685517,32.96 73.8832184,34.112 73.7125517,35.136 L47.7925517,35.136 C48.0058851,37.696 48.9018851,39.7013333 50.4805517,41.152 C52.0592184,42.6026667 54.0005517,43.328 56.3045517,43.328 C59.6325517,43.328 62.0005517,41.8986667 63.4085517,39.04 L73.0725517,39.04 C72.0485517,42.4533333 70.0858851,45.2586667 67.1845517,47.456 C64.2832184,49.6533333 60.7205517,50.752 56.4965517,50.752 C53.0832184,50.752 50.0218851,49.9946667 47.3125517,48.48 C44.6032184,46.9653333 42.4912184,44.8213333 40.9765517,42.048 C39.4618851,39.2746667 38.7045517,36.0746667 38.7045517,32.448 C38.7045517,28.7786667 39.4512184,25.5573333 40.9445517,22.784 C42.4378851,20.0106667 44.5285517,17.8773333 47.2165517,16.384 C49.9045517,14.8906667 52.9978851,14.144 56.4965517,14.144 C59.8672184,14.144 62.8858851,14.8693333 65.5525517,16.32 C68.2192184,17.7706667 70.2885517,19.8293333 71.7605517,22.496 C73.2325517,25.1626667 73.9685517,28.224 73.9685517,31.68 Z M64.6885517,29.12 C64.6458851,26.816 63.8138851,24.9706667 62.1925517,23.584 C60.5712184,22.1973333 58.5872184,21.504 56.2405517,21.504 C54.0218851,21.504 52.1552184,22.176 50.6405517,23.52 C49.1258851,24.864 48.1978851,26.7306667 47.8565517,29.12 L64.6885517,29.12 Z" id="Shape"></path>
                    <path d="M88.3531034,20.224 C89.5051034,18.3466667 91.0091034,16.8746667 92.8651034,15.808 C94.7211034,14.7413333 96.8437701,14.208 99.2331034,14.208 L99.2331034,23.616 L96.8651034,23.616 C94.0491034,23.616 91.9264368,24.2773333 90.4971034,25.6 C89.0677701,26.9226667 88.3531034,29.2266667 88.3531034,32.512 L88.3531034,50.176 L79.3931034,50.176 L79.3931034,14.72 L88.3531034,14.72 L88.3531034,20.224 Z" id="Path"></path>
                    <path d="M108.689655,10.496 C107.110989,10.496 105.798989,9.99466667 104.753655,8.992 C103.708322,7.98933333 103.185655,6.74133333 103.185655,5.248 C103.185655,3.75466667 103.708322,2.50666667 104.753655,1.504 C105.798989,0.501333333 107.110989,0 108.689655,0 C110.268322,0 111.580322,0.501333333 112.625655,1.504 C113.670989,2.50666667 114.193655,3.75466667 114.193655,5.248 C114.193655,6.74133333 113.670989,7.98933333 112.625655,8.992 C111.580322,9.99466667 110.268322,10.496 108.689655,10.496 Z M113.105655,14.72 L113.105655,50.176 L104.145655,50.176 L104.145655,14.72 L113.105655,14.72 Z" id="Shape"></path>
                    <path d="M137.090207,22.08 L130.882207,22.08 L130.882207,50.176 L121.794207,50.176 L121.794207,22.08 L117.762207,22.08 L117.762207,14.72 L121.794207,14.72 L121.794207,12.928 C121.794207,8.576 123.03154,5.376 125.506207,3.328 C127.980874,1.28 131.714207,0.32 136.706207,0.448 L136.706207,8 C134.530207,7.95733333 133.01554,8.32 132.162207,9.088 C131.308874,9.856 130.882207,11.2426667 130.882207,13.248 L130.882207,14.72 L137.090207,14.72 L137.090207,22.08 Z" id="Path"></path>
                    <polygon id="Path" points="176.834207 14.72 154.882207 66.944 145.346207 66.944 153.026207 49.28 138.818207 14.72 148.866207 14.72 158.018207 39.488 167.298207 14.72"></polygon>
                </g>
                <g id="Group">
                    <rect id="Rectangle" fill="#FDBA74" transform="translate(35.355339, 35.355339) rotate(45.000000) translate(-35.355339, -35.355339) " x="10.3553391" y="10.3553391" width="50" height="50" rx="7"></rect>
                    <rect id="Rectangle-Copy" fill="#F97316" transform="translate(51.355339, 35.355339) rotate(45.000000) translate(-51.355339, -35.355339) " x="26.3553391" y="10.3553391" width="50" height="50" rx="7"></rect>
                </g>
            </g>
        </g>
    </g>
</svg>